<?xml version="1.0" encoding="UTF-8" standalone="no"?>
<svg
   xmlns:dc="http://purl.org/dc/elements/1.1/"
   xmlns:cc="http://creativecommons.org/ns#"
   xmlns:rdf="http://www.w3.org/1999/02/22-rdf-syntax-ns#"
   xmlns:svg="http://www.w3.org/2000/svg"
   xmlns="http://www.w3.org/2000/svg"
   viewBox="0 0 140.88 150.60001"
   height="150.60001"
   width="140.88"
   xml:space="preserve"
   id="svg2"
   version="1.1"><metadata
     id="metadata8"><rdf:RDF><cc:Work
         rdf:about=""><dc:format>image/svg+xml</dc:format><dc:type
           rdf:resource="http://purl.org/dc/dcmitype/StillImage" /></cc:Work></rdf:RDF></metadata><defs
     id="defs6" /><g
     transform="matrix(1.3333333,0,0,-1.3333333,0,150.6)"
     id="g10"><g
       transform="scale(0.1)"
       id="g12"><path
         id="path14"
         style="fill:none;stroke:#F7F9FC;stroke-width:110;stroke-linecap:round;stroke-linejoin:miter;stroke-miterlimit:4;stroke-dasharray:none;stroke-opacity:1"
         d="M 78.2695,797.805 391.344,954.344" /><path
         id="path16"
         style="fill:none;stroke:#F7F9FC;stroke-width:110;stroke-linecap:round;stroke-linejoin:miter;stroke-miterlimit:4;stroke-dasharray:none;stroke-opacity:1"
         d="M 665.285,954.344 977.734,782.195" /><path
         id="path18"
         style="fill:none;stroke:#F7F9FC;stroke-width:110;stroke-linecap:round;stroke-linejoin:miter;stroke-miterlimit:4;stroke-dasharray:none;stroke-opacity:1"
         d="M 78.2695,778.863 V 514.496" /><path
         id="path20"
         style="fill:none;stroke:#F7F9FC;stroke-width:110;stroke-linecap:round;stroke-linejoin:miter;stroke-miterlimit:4;stroke-dasharray:none;stroke-opacity:1"
         d="M 978.359,768.039 V 504.297" /><path
         id="path22"
         style="fill:none;stroke:#F7F9FC;stroke-width:110;stroke-linecap:round;stroke-linejoin:miter;stroke-miterlimit:4;stroke-dasharray:none;stroke-opacity:1"
         d="M 221.469,230.34 528.313,55" /><path
         id="path24"
         style="fill:none;stroke:#F7F9FC;stroke-width:110;stroke-linecap:round;stroke-linejoin:miter;stroke-miterlimit:4;stroke-dasharray:none;stroke-opacity:1"
         d="M 835.156,230.34 528.313,55" /><path
         id="path26"
         style="fill:none;stroke:#F7F9FC;stroke-width:110;stroke-linecap:round;stroke-linejoin:miter;stroke-miterlimit:4;stroke-dasharray:none;stroke-opacity:1"
         d="M 528.313,543.434 V 846.699" /><path
         id="path28"
         style="fill:none;stroke:#F7F9FC;stroke-width:110;stroke-linecap:round;stroke-linejoin:miter;stroke-miterlimit:4;stroke-dasharray:none;stroke-opacity:1"
         d="M 528.313,543.434 254.371,419.145" /><path
         id="path30"
         style="fill:none;stroke:#F7F9FC;stroke-width:110;stroke-linecap:round;stroke-linejoin:miter;stroke-miterlimit:4;stroke-dasharray:none;stroke-opacity:1"
         d="M 528.313,543.434 802.254,419.145" /><path
         id="path32"
         style="fill:#F7F9FC;fill-opacity:1;fill-rule:nonzero;stroke:none"
         d="m 528.313,1129.47 c 43.226,0 78.269,-35.04 78.269,-78.27 0,-43.22 -35.043,-78.266 -78.269,-78.266 -43.227,0 -78.266,35.046 -78.266,78.266 0,43.23 35.039,78.27 78.266,78.27" /><path
         id="path34"
         style="fill:#F7F9FC;fill-opacity:1;fill-rule:nonzero;stroke:none"
         d="m 78.2695,419.145 c 43.2265,0 78.2655,-35.04 78.2655,-78.266 0,-43.227 -35.039,-78.27 -78.2655,-78.27 C 35.043,262.609 0,297.652 0,340.879 c 0,43.226 35.043,78.266 78.2695,78.266" /><path
         id="path36"
         style="fill:#F7F9FC;fill-opacity:1;fill-rule:nonzero;stroke:none"
         d="m 978.359,419.145 c 43.231,0 78.271,-35.04 78.271,-78.266 0,-43.227 -35.04,-78.27 -78.271,-78.27 -43.226,0 -78.269,35.043 -78.269,78.27 0,43.226 35.043,78.266 78.269,78.266" /></g></g></svg>